<?xml version="1.0" encoding="utf-8"?>
<!-- Generator: Adobe Illustrator 25.2.3, SVG Export Plug-In . SVG Version: 6.00 Build 0)  -->
<svg version="1.1" id="Layer_1" xmlns="http://www.w3.org/2000/svg" xmlns:xlink="http://www.w3.org/1999/xlink" x="0px" y="0px"
	 viewBox="0 0 32 26" style="enable-background:new 0 0 32 26;" xml:space="preserve">
<style type="text/css">
	.st0{fill:#FF4C60;}
	.st1{fill:#332885;}
	.st2{font-family:'PlayfairDisplay-Bold';}
	.st3{font-size:25.8537px;}
</style>
<desc>Created with Sketch.</desc>
<g id="Symbols">
	<g id="header-2-copy-7" transform="translate(-44.000000, -61.000000)">
		<g id="header-2">
			<g id="header">
				<g id="B." transform="translate(44.448000, 61.800000)">
					<path id="_x2E_" class="st0" d="M21.6,22.5c0.2,0,0.3-0.1,0.4-0.2c0.1-0.1,0.2-0.3,0.2-0.4l0,0v-3.3c0-0.2-0.1-0.3-0.2-0.5
						C22,18.1,21.8,18,21.6,18l0,0h-3.3c-0.2,0-0.3,0.1-0.5,0.2c-0.1,0.1-0.2,0.3-0.2,0.5l0,0v3.3c0,0.2,0.1,0.3,0.2,0.4
						c0.1,0.1,0.3,0.2,0.5,0.2l0,0H21.6z"/>
				</g>
			</g>
			<text transform="matrix(1 0 0 1 53.4531 81.5135)" class="st1 st2 st3">J</text>
		</g>
	</g>
</g>
</svg>
